<svg xmlns="http://www.w3.org/2000/svg" viewBox="0 0 256 256">
  <defs>
    <linearGradient id="g" x1="0" y1="0" x2="1" y2="1">
      <stop offset="0" stop-color="#22c55e"></stop>
      <stop offset="1" stop-color="#3b82f6"></stop>
    </linearGradient>
  </defs>
  <rect width="256" height="256" rx="56" fill="rgba(255,255,255,0.06)"></rect>
  <path d="M128 34c-18 22-26 48-26 72 0 40 22 78 26 116 4-38 26-76 26-116 0-24-8-50-26-72z" fill="url(#g)"></path>
  <path d="M78 92c12-10 28-16 50-16s38 6 50 16c-10 10-28 16-50 16s-40-6-50-16z" fill="rgba(255,255,255,0.25)"></path>
  <path d="M86 156c10-10 24-16 42-16s32 6 42 16c-10 10-24 16-42 16s-32-6-42-16z" fill="rgba(255,255,255,0.18)"></path>
</svg>